<svg xmlns="http://www.w3.org/2000/svg" viewBox="0 0 512 128" fill="none">
  <rect x="0" y="0" width="128" height="128" rx="24" fill="#111111"/>
  <path d="M16 52L40 28L52 40L36 60L16 52Z" fill="#FFFFFF"/>
  <path d="M112 52L88 28L76 40L92 60L112 52Z" fill="#FFFFFF"/>
  <path d="M42 62L57.6 52.8C61.4 50.6 66.6 50.6 70.4 52.8L86 62" stroke="#FFFFFF" stroke-width="8" stroke-linecap="round" stroke-linejoin="round"/>
  <path d="M48 70L60 80C62.4 82 65.6 82 68 80L80 70" stroke="#FFFFFF" stroke-width="8" stroke-linecap="round" stroke-linejoin="round"/>
  <path d="M42 76L52 84M50 86L60 94M58 96L66 102" stroke="#FFFFFF" stroke-width="8" stroke-linecap="round" stroke-linejoin="round"/>
  <text x="156" y="82" font-family="Arial, Helvetica, sans-serif" font-size="64" font-weight="700" fill="#111111" letter-spacing="2">RIVIQO</text>
</svg>
