<?xml version="1.0" standalone="no"?>
<!DOCTYPE svg PUBLIC "-//W3C//DTD SVG 20010904//EN"
 "http://www.w3.org/TR/2001/REC-SVG-20010904/DTD/svg10.dtd">
<svg version="1.0" xmlns="http://www.w3.org/2000/svg"
 width="1632.000000pt" height="640.000000pt" viewBox="0 0 1632.000000 640.000000"
 preserveAspectRatio="xMidYMid meet">

<g transform="translate(0.000000,640.000000) scale(0.100000,-0.100000)"
fill="#000000" stroke="none">
<path d="M3301 4386 c-48 -17 -108 -71 -134 -119 l-22 -42 0 -780 c0 -882 -6
-817 82 -894 25 -23 63 -46 84 -51 25 -7 334 -9 896 -8 l858 3 40 26 c49 32
67 52 94 105 21 40 21 47 21 817 0 749 0 778 -19 815 -25 49 -74 97 -126 122
-40 20 -62 20 -891 19 -640 0 -857 -4 -883 -13z m312 -373 c53 -34 97 -65 97
-69 0 -3 -33 -67 -74 -142 -40 -76 -113 -213 -161 -307 -48 -93 -90 -173 -94
-177 -3 -4 -26 7 -51 24 -25 17 -65 41 -90 54 -90 46 -89 33 -14 179 36 72
109 212 160 313 113 220 103 204 117 195 7 -4 56 -35 110 -70z m1434 -250 c87
-175 159 -320 160 -323 2 -3 -23 -18 -54 -35 -32 -16 -79 -43 -105 -58 -45
-27 -68 -29 -68 -6 0 12 -91 201 -211 442 -82 162 -94 197 -69 197 4 0 46 22
92 50 45 27 86 49 90 50 4 0 78 -143 165 -317z m-678 139 c148 -49 177 -55
244 -48 l63 6 106 -210 c105 -206 106 -210 85 -221 -12 -6 -45 -29 -74 -51
-41 -31 -55 -37 -70 -29 -18 10 -153 114 -329 255 -54 44 -103 83 -109 87 -5
4 -26 10 -45 14 -31 5 -49 -3 -169 -74 -113 -68 -141 -81 -178 -81 -47 0 -93
23 -93 46 0 8 17 30 38 48 20 18 64 58 97 87 103 93 198 165 240 182 57 23 96
21 194 -11z m-501 -76 c98 1 103 1 85 -15 -10 -10 -55 -51 -101 -91 -101 -89
-107 -100 -92 -146 9 -27 22 -40 54 -55 22 -10 52 -19 66 -19 44 0 116 27 186
71 176 108 168 107 264 24 36 -31 137 -111 225 -177 88 -66 168 -129 178 -140
39 -45 6 -117 -48 -104 -15 4 -70 36 -123 72 -53 35 -101 63 -106 61 -31 -10
-11 -39 72 -100 89 -66 102 -81 102 -117 0 -21 -36 -50 -61 -50 -9 0 -60 29
-114 65 -54 36 -103 64 -109 62 -32 -10 -12 -39 63 -93 66 -47 81 -62 81 -84
0 -65 -46 -65 -150 0 -44 28 -84 50 -90 50 -26 0 -5 -40 40 -73 52 -39 58 -52
38 -79 -23 -29 -51 -29 -108 0 -52 27 -55 30 -52 63 4 42 -19 72 -72 94 -27
12 -36 21 -36 39 0 34 -30 67 -70 75 -29 6 -36 11 -38 36 -2 17 -15 42 -30 58
-21 22 -35 27 -72 27 -25 0 -52 -6 -59 -12 -11 -11 -14 -10 -18 0 -3 7 -17 27
-31 43 -24 29 -29 31 -77 27 -50 -4 -53 -3 -109 46 l-57 51 77 145 c42 80 90
171 107 203 28 54 32 58 56 50 14 -4 73 -7 129 -7z m-154 -542 c20 -19 20 -28
0 -70 -29 -60 -79 -81 -116 -47 -28 25 -22 61 16 99 37 37 75 44 100 18z m176
-64 c11 -11 20 -26 20 -34 0 -24 -108 -140 -137 -148 -47 -13 -83 25 -66 69
10 25 71 93 104 116 31 22 55 21 79 -3z m120 -121 c17 -31 5 -61 -46 -118 -34
-37 -53 -51 -73 -51 -78 0 -63 94 27 167 35 29 78 30 92 2z m98 -111 c22 -22
13 -64 -23 -112 -28 -35 -42 -46 -63 -46 -62 0 -68 52 -17 123 27 36 41 47 63
47 15 0 33 -5 40 -12z"/>
<path d="M3292 3508 c-20 -20 -15 -66 9 -78 26 -14 69 11 69 40 0 39 -51 65
-78 38z"/>
<path d="M5028 3508 c-30 -24 -27 -71 6 -86 50 -23 89 44 48 81 -22 20 -33 21
-54 5z"/>
<path d="M10275 3984 c-124 -26 -195 -60 -281 -133 -79 -66 -131 -148 -170
-265 -24 -72 -28 -96 -28 -211 0 -147 14 -214 66 -322 40 -84 149 -198 226
-237 62 -31 188 -66 241 -66 32 0 41 -7 81 -58 57 -71 151 -144 225 -171 62
-23 169 -28 244 -10 51 11 131 46 131 57 -1 11 -66 181 -72 188 -4 3 -24 -4
-47 -15 -54 -28 -123 -27 -181 3 -25 12 -46 29 -47 37 -2 8 19 24 50 39 80 38
186 150 230 240 97 201 88 472 -23 665 -64 113 -210 216 -351 250 -59 13 -243
19 -294 9z m267 -266 c49 -22 109 -84 136 -142 71 -151 41 -396 -61 -494 -66
-62 -124 -84 -229 -83 -132 0 -234 75 -276 204 -70 213 -10 432 140 508 74 38
211 41 290 7z"/>
<path d="M11795 3984 c-162 -39 -234 -74 -319 -159 -68 -67 -123 -163 -151
-265 -27 -97 -26 -281 3 -383 51 -179 144 -296 297 -371 78 -39 167 -56 294
-56 197 0 317 44 432 159 238 238 234 695 -7 921 -119 111 -221 150 -404 155
-69 2 -134 2 -145 -1z m238 -260 c128 -45 191 -166 191 -364 0 -168 -48 -266
-156 -325 -69 -38 -202 -48 -274 -20 -144 55 -221 227 -193 432 23 169 107
268 248 293 54 10 130 3 184 -16z"/>
<path d="M5940 3371 l0 -601 140 0 140 0 0 220 0 220 59 0 c64 0 75 -6 109
-62 10 -18 65 -111 121 -205 l103 -173 158 0 158 0 -135 223 c-74 122 -147
235 -162 251 -18 20 -22 30 -13 33 43 16 131 88 158 130 41 63 54 111 54 204
0 112 -21 172 -84 234 -103 104 -156 116 -518 122 l-288 5 0 -601z m520 351
c109 -42 123 -183 24 -258 -35 -27 -44 -29 -151 -33 l-113 -3 0 156 0 156 98
-1 c66 0 111 -5 142 -17z"/>
<path d="M7220 3370 l0 -600 140 0 140 0 0 600 0 600 -140 0 -140 0 0 -600z"/>
<path d="M7763 3953 c3 -10 58 -171 122 -358 64 -187 153 -449 198 -583 l81
-242 168 2 169 3 65 190 c35 105 78 228 94 275 56 167 170 497 210 609 22 63
40 116 40 118 0 2 -67 3 -149 3 l-148 0 -22 -77 c-12 -43 -26 -89 -31 -103 -5
-14 -23 -72 -40 -130 -18 -58 -63 -202 -101 -320 -38 -118 -71 -230 -75 -247
-4 -18 -9 -33 -13 -33 -3 0 -16 37 -27 83 -12 45 -65 226 -119 402 -53 176
-104 344 -113 373 l-15 52 -150 0 c-138 0 -149 -1 -144 -17z"/>
<path d="M9180 3370 l0 -600 140 0 140 0 0 600 0 600 -140 0 -140 0 0 -600z"/>
</g>
</svg>
